<mxfile host="app.diagrams.net" modified="2023-06-17T20:05:42.790Z" agent="Mozilla/5.0 (Windows NT 10.0; Win64; x64) AppleWebKit/537.36 (KHTML, like Gecko) Chrome/114.0.0.0 Safari/537.36" etag="ub32DmM6CjaB1FuCcTj0" version="21.4.0" type="github">
  <diagram name="Page-1" id="FK4kt72VOiubtQufLutG">
    <mxGraphModel dx="1434" dy="764" grid="1" gridSize="10" guides="1" tooltips="1" connect="1" arrows="1" fold="1" page="1" pageScale="1" pageWidth="827" pageHeight="1169" math="0" shadow="0">
      <root>
        <mxCell id="0" />
        <mxCell id="1" parent="0" />
        <mxCell id="iXSwT5H_rE35bHHJK52_-1" value="&lt;u&gt;:Client&lt;/u&gt;" style="rounded=0;whiteSpace=wrap;html=1;" parent="1" vertex="1">
          <mxGeometry x="110" y="160" width="120" height="60" as="geometry" />
        </mxCell>
        <mxCell id="iXSwT5H_rE35bHHJK52_-2" value="&lt;u&gt;:Site Web&lt;/u&gt;" style="rounded=0;whiteSpace=wrap;html=1;" parent="1" vertex="1">
          <mxGeometry x="370" y="160" width="120" height="60" as="geometry" />
        </mxCell>
        <mxCell id="iXSwT5H_rE35bHHJK52_-3" value="&lt;u&gt;:Système de base de données&lt;/u&gt;" style="rounded=0;whiteSpace=wrap;html=1;" parent="1" vertex="1">
          <mxGeometry x="630" y="160" width="120" height="60" as="geometry" />
        </mxCell>
        <mxCell id="iXSwT5H_rE35bHHJK52_-5" value="Mettre un commentaire" style="rounded=1;whiteSpace=wrap;html=1;" parent="1" vertex="1">
          <mxGeometry x="30" y="90" width="170" height="20" as="geometry" />
        </mxCell>
        <mxCell id="iXSwT5H_rE35bHHJK52_-6" value="" style="endArrow=none;dashed=1;html=1;dashPattern=1 3;strokeWidth=2;rounded=0;entryX=0.408;entryY=0.993;entryDx=0;entryDy=0;entryPerimeter=0;" parent="1" source="iXSwT5H_rE35bHHJK52_-9" target="iXSwT5H_rE35bHHJK52_-1" edge="1">
          <mxGeometry width="50" height="50" relative="1" as="geometry">
            <mxPoint x="160" y="761.4285714285714" as="sourcePoint" />
            <mxPoint x="480" y="350" as="targetPoint" />
          </mxGeometry>
        </mxCell>
        <mxCell id="iXSwT5H_rE35bHHJK52_-7" value="" style="endArrow=none;dashed=1;html=1;dashPattern=1 3;strokeWidth=2;rounded=0;entryX=0.408;entryY=0.993;entryDx=0;entryDy=0;entryPerimeter=0;" parent="1" source="iXSwT5H_rE35bHHJK52_-15" edge="1">
          <mxGeometry width="50" height="50" relative="1" as="geometry">
            <mxPoint x="430.5" y="761.4285714285714" as="sourcePoint" />
            <mxPoint x="429.5" y="220" as="targetPoint" />
          </mxGeometry>
        </mxCell>
        <mxCell id="iXSwT5H_rE35bHHJK52_-8" value="" style="endArrow=none;dashed=1;html=1;dashPattern=1 3;strokeWidth=2;rounded=0;entryX=0.408;entryY=0.993;entryDx=0;entryDy=0;entryPerimeter=0;" parent="1" source="iXSwT5H_rE35bHHJK52_-39" edge="1">
          <mxGeometry width="50" height="50" relative="1" as="geometry">
            <mxPoint x="690.5" y="761.4285714285714" as="sourcePoint" />
            <mxPoint x="689.5" y="220" as="targetPoint" />
          </mxGeometry>
        </mxCell>
        <mxCell id="iXSwT5H_rE35bHHJK52_-13" value="" style="endArrow=none;dashed=1;html=1;dashPattern=1 3;strokeWidth=2;rounded=0;entryX=0.408;entryY=0.993;entryDx=0;entryDy=0;entryPerimeter=0;" parent="1" target="iXSwT5H_rE35bHHJK52_-9" edge="1">
          <mxGeometry width="50" height="50" relative="1" as="geometry">
            <mxPoint x="160" y="761.4285714285714" as="sourcePoint" />
            <mxPoint x="159" y="220" as="targetPoint" />
          </mxGeometry>
        </mxCell>
        <mxCell id="iXSwT5H_rE35bHHJK52_-9" value="" style="rounded=0;whiteSpace=wrap;html=1;" parent="1" vertex="1">
          <mxGeometry x="160" y="230" width="10" height="460" as="geometry" />
        </mxCell>
        <mxCell id="iXSwT5H_rE35bHHJK52_-14" value="1) Cliquer sur le bouton filtre" style="endArrow=classic;html=1;rounded=0;exitX=0.971;exitY=0.19;exitDx=0;exitDy=0;exitPerimeter=0;" parent="1" source="iXSwT5H_rE35bHHJK52_-9" edge="1">
          <mxGeometry x="-0.0395" y="9" width="50" height="50" relative="1" as="geometry">
            <mxPoint x="430" y="380" as="sourcePoint" />
            <mxPoint x="420" y="320" as="targetPoint" />
            <mxPoint as="offset" />
          </mxGeometry>
        </mxCell>
        <mxCell id="iXSwT5H_rE35bHHJK52_-16" value="" style="endArrow=none;dashed=1;html=1;dashPattern=1 3;strokeWidth=2;rounded=0;entryX=0.408;entryY=0.993;entryDx=0;entryDy=0;entryPerimeter=0;" parent="1" target="iXSwT5H_rE35bHHJK52_-15" edge="1">
          <mxGeometry width="50" height="50" relative="1" as="geometry">
            <mxPoint x="430.5" y="761.4285714285714" as="sourcePoint" />
            <mxPoint x="429.5" y="220" as="targetPoint" />
          </mxGeometry>
        </mxCell>
        <mxCell id="iXSwT5H_rE35bHHJK52_-15" value="" style="rounded=0;whiteSpace=wrap;html=1;" parent="1" vertex="1">
          <mxGeometry x="425" y="230" width="10" height="460" as="geometry" />
        </mxCell>
        <mxCell id="iXSwT5H_rE35bHHJK52_-17" value="" style="endArrow=classic;html=1;rounded=0;exitX=-0.386;exitY=0.288;exitDx=0;exitDy=0;exitPerimeter=0;entryX=1.257;entryY=0.291;entryDx=0;entryDy=0;entryPerimeter=0;" parent="1" source="iXSwT5H_rE35bHHJK52_-15" target="iXSwT5H_rE35bHHJK52_-9" edge="1">
          <mxGeometry width="50" height="50" relative="1" as="geometry">
            <mxPoint x="430" y="260" as="sourcePoint" />
            <mxPoint x="480" y="210" as="targetPoint" />
          </mxGeometry>
        </mxCell>
        <mxCell id="iXSwT5H_rE35bHHJK52_-18" value="2) Afficher les filtres" style="edgeLabel;html=1;align=center;verticalAlign=middle;resizable=0;points=[];" parent="iXSwT5H_rE35bHHJK52_-17" vertex="1" connectable="0">
          <mxGeometry x="0.1552" y="2" relative="1" as="geometry">
            <mxPoint x="3" y="-15" as="offset" />
          </mxGeometry>
        </mxCell>
        <mxCell id="iXSwT5H_rE35bHHJK52_-19" value="3) Choisir les filtres" style="endArrow=classic;html=1;rounded=0;exitX=1.257;exitY=0.384;exitDx=0;exitDy=0;exitPerimeter=0;" parent="1" source="iXSwT5H_rE35bHHJK52_-9" edge="1">
          <mxGeometry x="-0.051" y="17" width="50" height="50" relative="1" as="geometry">
            <mxPoint x="430" y="450" as="sourcePoint" />
            <mxPoint x="420" y="407" as="targetPoint" />
            <mxPoint as="offset" />
          </mxGeometry>
        </mxCell>
        <mxCell id="iXSwT5H_rE35bHHJK52_-23" value="" style="endArrow=classic;html=1;rounded=0;exitX=1.257;exitY=0.459;exitDx=0;exitDy=0;exitPerimeter=0;entryX=0.054;entryY=0.46;entryDx=0;entryDy=0;entryPerimeter=0;" parent="1" source="iXSwT5H_rE35bHHJK52_-9" target="iXSwT5H_rE35bHHJK52_-15" edge="1">
          <mxGeometry width="50" height="50" relative="1" as="geometry">
            <mxPoint x="430" y="450" as="sourcePoint" />
            <mxPoint x="480" y="400" as="targetPoint" />
          </mxGeometry>
        </mxCell>
        <mxCell id="iXSwT5H_rE35bHHJK52_-38" value="4) Cliquer sur appliquer les filtres" style="edgeLabel;html=1;align=center;verticalAlign=middle;resizable=0;points=[];" parent="iXSwT5H_rE35bHHJK52_-23" vertex="1" connectable="0">
          <mxGeometry x="-0.1008" y="3" relative="1" as="geometry">
            <mxPoint y="-8" as="offset" />
          </mxGeometry>
        </mxCell>
        <mxCell id="iXSwT5H_rE35bHHJK52_-40" value="" style="endArrow=none;dashed=1;html=1;dashPattern=1 3;strokeWidth=2;rounded=0;entryX=0.408;entryY=0.993;entryDx=0;entryDy=0;entryPerimeter=0;" parent="1" target="iXSwT5H_rE35bHHJK52_-39" edge="1">
          <mxGeometry width="50" height="50" relative="1" as="geometry">
            <mxPoint x="690.5" y="761.4285714285714" as="sourcePoint" />
            <mxPoint x="689.5" y="220" as="targetPoint" />
          </mxGeometry>
        </mxCell>
        <mxCell id="iXSwT5H_rE35bHHJK52_-39" value="" style="rounded=0;whiteSpace=wrap;html=1;" parent="1" vertex="1">
          <mxGeometry x="685" y="470" width="10" height="90" as="geometry" />
        </mxCell>
        <mxCell id="iXSwT5H_rE35bHHJK52_-41" value="5) Interroge sur les produits correspondants" style="endArrow=classic;html=1;rounded=0;entryX=0;entryY=0;entryDx=0;entryDy=0;exitX=1.592;exitY=0.522;exitDx=0;exitDy=0;exitPerimeter=0;" parent="1" source="iXSwT5H_rE35bHHJK52_-15" target="iXSwT5H_rE35bHHJK52_-39" edge="1">
          <mxGeometry x="0.0577" y="10" width="50" height="50" relative="1" as="geometry">
            <mxPoint x="440" y="470" as="sourcePoint" />
            <mxPoint x="510" y="420" as="targetPoint" />
            <mxPoint as="offset" />
          </mxGeometry>
        </mxCell>
        <mxCell id="iXSwT5H_rE35bHHJK52_-42" value="6) Renvoie les produits correspondants" style="endArrow=classic;html=1;rounded=0;entryX=1.131;entryY=0.713;entryDx=0;entryDy=0;entryPerimeter=0;exitX=0;exitY=1;exitDx=0;exitDy=0;" parent="1" source="iXSwT5H_rE35bHHJK52_-39" target="iXSwT5H_rE35bHHJK52_-15" edge="1">
          <mxGeometry x="-0.0746" y="-9" width="50" height="50" relative="1" as="geometry">
            <mxPoint x="460" y="470" as="sourcePoint" />
            <mxPoint x="510" y="420" as="targetPoint" />
            <mxPoint as="offset" />
          </mxGeometry>
        </mxCell>
        <mxCell id="iXSwT5H_rE35bHHJK52_-43" value="7) Affiche les produits correspondants" style="endArrow=classic;html=1;rounded=0;entryX=1.4;entryY=0.788;entryDx=0;entryDy=0;entryPerimeter=0;" parent="1" target="iXSwT5H_rE35bHHJK52_-9" edge="1">
          <mxGeometry x="0.138" y="-12" width="50" height="50" relative="1" as="geometry">
            <mxPoint x="420" y="592" as="sourcePoint" />
            <mxPoint x="446" y="568" as="targetPoint" />
            <mxPoint as="offset" />
          </mxGeometry>
        </mxCell>
      </root>
    </mxGraphModel>
  </diagram>
</mxfile>
